<svg width="3009" height="781" viewBox="0 0 3009 781" fill="none" xmlns="http://www.w3.org/2000/svg">
<path d="M2721 573H2694V437H2721V573Z" fill="#141926"/>
<path d="M2688 400.747C2688 390.214 2696.41 382 2707.38 382C2718.36 382 2726 390.214 2726 400.747C2726 411.786 2717.84 420 2707.38 420C2696.93 420 2688 411.786 2688 400.747Z" fill="#EF3F5C"/>
<path d="M2391.28 758.236V701.355H2439.52V714.826H2406.13V724.295H2436.42V737.612H2406.13V758.239H2391.28V758.236Z" fill="#141926"/>
<path d="M2475.58 758.236L2472.17 747.846H2453.51L2450.02 758.236H2434.7L2456.13 701.355H2469.94L2490.82 758.236H2475.58ZM2468.59 735.376L2463.04 718.521L2457.24 735.376H2468.59Z" fill="#141926"/>
<path d="M2496.97 751.003C2491.17 745.539 2488.32 738.533 2488.32 729.989C2488.32 721.444 2491.26 714.288 2497.05 708.744C2502.92 703.127 2510.07 700.354 2518.56 700.354C2529.04 700.354 2538.33 704.739 2543.73 711.592L2534.28 721.214C2529.76 716.518 2524.84 714.132 2519.52 714.132C2514.99 714.132 2511.26 715.593 2508.17 718.597C2505.15 721.598 2503.64 725.37 2503.64 729.912C2503.64 734.455 2505.15 737.993 2508.17 740.997C2511.26 743.92 2514.99 745.386 2519.44 745.386C2525.24 745.386 2530.31 742.922 2534.52 738.073L2544.36 747.231C2541.67 750.696 2538.01 753.543 2533.49 755.776C2528.97 758.009 2523.96 759.087 2518.49 759.087C2509.91 759.087 2502.77 756.393 2496.97 751.006L2496.97 751.003Z" fill="#141926"/>
<path d="M2548.51 758.236V701.355H2590.9V714.672H2563.43V723.063H2588.84V736.301H2563.43V744.922H2590.82V758.239H2548.51V758.236Z" fill="#141926"/>
<path d="M2599.53 758.737V701.856H2628.24C2636.73 701.856 2643.4 704.396 2648.24 709.553C2653.17 714.709 2655.63 721.638 2655.63 730.41C2655.63 739.181 2653.09 746.034 2648.08 751.114C2643.08 756.194 2636.26 758.733 2627.52 758.733H2599.53L2599.53 758.737ZM2608.66 750.269H2627.92C2633.64 750.269 2638.08 748.423 2641.26 744.652C2644.51 740.88 2646.1 736.03 2646.1 730.183C2646.1 724.335 2644.51 719.716 2641.26 715.944C2638.08 712.173 2633.64 710.327 2628 710.327H2608.66V750.276L2608.66 750.269Z" fill="#141926"/>
<path d="M2668.2 758.737H2660.12V717.25H2668.2V758.737Z" fill="#141926"/>
<path d="M2710.64 717.251H2717.09V754.503C2717.09 761.198 2714.95 766.512 2710.74 770.437C2706.53 774.362 2700.9 776.364 2693.91 776.364C2686.93 776.364 2680.41 774.362 2674.78 770.437L2678.59 763.895C2683.35 767.206 2688.43 768.821 2693.75 768.821C2702.88 768.821 2708.44 763.357 2708.44 755.661V753.314C2704.71 757.393 2699.94 758.815 2694.07 758.815C2687.88 758.815 2682.72 756.812 2678.67 752.734C2674.62 748.655 2672.63 743.575 2672.63 737.494C2672.63 731.412 2674.7 726.332 2678.91 722.331C2683.11 718.252 2688.35 716.249 2694.47 716.249C2700.1 716.249 2704.87 717.671 2708.68 721.907L2710.64 717.251ZM2705.02 747.347C2707.65 744.73 2708.91 741.496 2708.91 737.57C2708.91 733.645 2707.65 730.334 2705.02 727.794C2702.4 725.254 2699.15 723.946 2695.18 723.946C2691.21 723.946 2688.03 725.254 2685.42 727.871C2682.8 730.411 2681.53 733.645 2681.53 737.57C2681.53 741.496 2682.8 744.807 2685.42 747.423C2688.04 749.963 2691.29 751.272 2695.18 751.272C2699.07 751.272 2702.41 749.963 2705.02 747.347Z" fill="#141926"/>
<path d="M2730.25 758.737H2722.18V717.25H2730.25V758.737Z" fill="#141926"/>
<path d="M2766.78 756.274C2763.6 758.584 2759.63 759.739 2754.95 759.739C2745.66 759.739 2740.9 754.121 2740.9 743.881V724.486H2733.52V717.25H2740.98V702.547H2749.63V717.25H2764.4V724.486H2749.63V744.038C2749.63 749.348 2751.85 751.965 2756.22 751.965C2758.52 751.965 2761.06 751.194 2763.76 749.656L2766.78 756.274Z" fill="#141926"/>
<path d="M2802.78 717.25H2809.23V758.737H2802.78L2800.81 753.697C2796.92 758.163 2792 759.739 2786.21 759.739C2780.09 759.739 2774.93 757.659 2770.88 753.427C2766.83 749.195 2764.85 743.961 2764.85 737.727C2764.85 731.492 2766.83 726.412 2770.88 722.333C2774.93 718.254 2780.09 716.252 2786.21 716.252C2792 716.252 2796.92 717.827 2800.81 722.37L2802.78 717.253V717.25ZM2797.32 747.883C2799.94 745.19 2801.21 741.879 2801.21 737.954C2801.21 734.028 2799.94 730.794 2797.32 728.101C2794.7 725.407 2791.45 724.022 2787.4 724.022C2783.34 724.022 2780.01 725.407 2777.47 728.101C2774.93 730.794 2773.66 734.105 2773.66 738.03C2773.66 741.955 2774.93 745.266 2777.47 747.96C2780.01 750.653 2783.34 751.962 2787.4 751.962C2791.45 751.962 2794.7 750.577 2797.32 747.883Z" fill="#141926"/>
<path d="M2823.3 758.737H2814.57V700.395H2823.3V758.737Z" fill="#141926"/>
<path d="M2720.34 706.015C2720.34 702.861 2722.96 700.398 2726.37 700.398C2729.79 700.398 2732.17 702.861 2732.17 706.015C2732.17 709.326 2729.63 711.789 2726.37 711.789C2723.12 711.789 2720.34 709.326 2720.34 706.015Z" fill="#EF3F5C"/>
<path d="M2658.28 706.015C2658.28 702.861 2660.9 700.398 2664.32 700.398C2667.73 700.398 2670.11 702.861 2670.11 706.015C2670.11 709.326 2667.57 711.789 2664.32 711.789C2661.06 711.789 2658.28 709.326 2658.28 706.015Z" fill="#EF3F5C"/>
<path d="M2277.47 694.235H2270.36C2266.42 694.235 2263.24 691.048 2263.24 687.119C2263.24 683.188 2266.42 680 2270.35 680H2341.53C2345.46 680 2348.65 683.188 2348.65 687.116C2348.65 691.048 2345.46 694.232 2341.53 694.232H2277.47V694.235ZM2291.71 722.706H2327.3C2331.23 722.706 2334.41 719.518 2334.41 715.59C2334.41 711.658 2331.23 708.474 2327.3 708.474H2270.35C2266.42 708.474 2263.24 711.661 2263.24 715.59C2263.24 719.522 2266.42 722.706 2270.35 722.706H2291.71H2291.71ZM2256.12 722.706C2252.19 722.706 2249 725.893 2249 729.822H2249C2249 733.754 2252.19 736.938 2256.12 736.938C2260.05 736.938 2263.23 733.75 2263.23 729.822C2263.23 725.89 2260.05 722.706 2256.12 722.706H2256.12ZM2334.42 736.941H2284.59C2280.66 736.941 2277.47 740.129 2277.47 744.057C2277.47 747.989 2280.66 751.173 2284.59 751.173H2341.53C2345.46 751.173 2348.65 747.986 2348.65 744.057C2348.65 740.125 2345.46 736.941 2341.53 736.941H2334.41H2334.42ZM2348.65 758.293C2348.65 762.224 2351.84 765.409 2355.77 765.409C2359.7 765.409 2362.89 762.221 2362.89 758.293C2362.89 754.361 2359.7 751.177 2355.77 751.177C2351.84 751.177 2348.65 754.364 2348.65 758.293ZM2320.18 765.409H2270.35C2266.42 765.409 2263.24 768.596 2263.24 772.525C2263.24 776.456 2266.42 779.64 2270.35 779.64H2341.53C2345.46 779.64 2348.65 776.453 2348.65 772.525C2348.65 768.593 2345.46 765.409 2341.53 765.409H2320.18H2320.18Z" fill="url(#paint0_linear_15_156)"/>
<path d="M2133.3 728.948C2137.32 729.699 2140.38 731.282 2142.47 733.696C2144.62 736.11 2145.69 739.249 2145.69 743.112C2145.69 747.887 2143.95 751.562 2140.46 754.137C2136.97 756.712 2131.79 758 2124.93 758H2099.82V701.667H2123.32C2129.43 701.667 2134.18 702.927 2137.56 705.449C2141 707.917 2142.71 711.458 2142.71 716.072C2142.71 719.291 2141.85 722 2140.14 724.2C2138.47 726.4 2136.19 727.982 2133.3 728.948ZM2103.92 705.208V727.66H2123.16C2128.09 727.66 2131.87 726.722 2134.5 724.844C2137.19 722.912 2138.53 720.096 2138.53 716.394C2138.53 712.746 2137.19 709.983 2134.5 708.105C2131.87 706.173 2128.09 705.208 2123.16 705.208H2103.92ZM2124.93 754.459C2130.4 754.459 2134.53 753.52 2137.32 751.642C2140.16 749.711 2141.59 746.76 2141.59 742.79C2141.59 738.82 2140.16 735.896 2137.32 734.018C2134.53 732.14 2130.4 731.201 2124.93 731.201H2103.92V754.459H2124.93ZM2176.54 738.605V758H2172.43V738.605L2149.74 701.667H2154.24L2174.6 734.823L2194.97 701.667H2199.23L2176.54 738.605Z" fill="#141926"/>
<path d="M1151.28 618.4C1118.88 618.4 1088.68 613.2 1060.68 602.8C1033.08 592 1009.08 576.8 988.681 557.2C968.281 537.6 952.281 514.6 940.681 488.2C929.481 461.8 923.881 432.8 923.881 401.2C923.881 369.6 929.481 340.6 940.681 314.2C952.281 287.8 968.281 264.8 988.681 245.2C1009.48 225.6 1033.68 210.6 1061.28 200.2C1088.88 189.4 1119.08 184 1151.88 184C1188.28 184 1221.08 190.4 1250.28 203.2C1279.88 215.6 1304.68 234 1324.68 258.4L1262.28 316C1247.88 299.6 1231.88 287.4 1214.28 279.4C1196.68 271 1177.48 266.8 1156.68 266.8C1137.08 266.8 1119.08 270 1102.68 276.4C1086.28 282.8 1072.08 292 1060.08 304C1048.08 316 1038.68 330.2 1031.88 346.6C1025.48 363 1022.28 381.2 1022.28 401.2C1022.28 421.2 1025.48 439.4 1031.88 455.8C1038.68 472.2 1048.08 486.4 1060.08 498.4C1072.08 510.4 1086.28 519.6 1102.68 526C1119.08 532.4 1137.08 535.6 1156.68 535.6C1177.48 535.6 1196.68 531.6 1214.28 523.6C1231.88 515.2 1247.88 502.6 1262.28 485.8L1324.68 543.4C1304.68 567.8 1279.88 586.4 1250.28 599.2C1221.08 612 1188.08 618.4 1151.28 618.4Z" fill="#141926"/>
<path d="M1374.68 611V191H1556.48C1594.08 191 1626.48 197.2 1653.68 209.6C1680.88 221.6 1701.88 239 1716.68 261.8C1731.48 284.6 1738.88 311.8 1738.88 343.4C1738.88 374.6 1731.48 401.6 1716.68 424.4C1701.88 446.8 1680.88 464 1653.68 476C1626.48 488 1594.08 494 1556.48 494H1428.68L1471.88 451.4V611H1374.68ZM1641.68 611L1536.68 458.6H1640.48L1746.68 611H1641.68ZM1471.88 462.2L1428.68 416.6H1551.08C1581.08 416.6 1603.48 410.2 1618.28 397.4C1633.08 384.2 1640.48 366.2 1640.48 343.4C1640.48 320.2 1633.08 302.2 1618.28 289.4C1603.48 276.6 1581.08 270.2 1551.08 270.2H1428.68L1471.88 224V462.2Z" fill="#141926"/>
<path d="M1986.88 618.2C1927.28 618.2 1880.68 601.6 1847.08 568.4C1813.48 535.2 1796.68 487.8 1796.68 426.2V191H1893.88V422.6C1893.88 462.6 1902.08 491.4 1918.48 509C1934.88 526.6 1957.88 535.4 1987.48 535.4C2017.08 535.4 2040.08 526.6 2056.48 509C2072.88 491.4 2081.08 462.6 2081.08 422.6V191H2177.08V426.2C2177.08 487.8 2160.28 535.2 2126.68 568.4C2093.08 601.6 2046.48 618.2 1986.88 618.2Z" fill="#141926"/>
<path d="M2227.08 611V191H2417.88C2463.48 191 2503.68 199.8 2538.48 217.4C2573.28 234.6 2600.48 258.8 2620.08 290C2639.68 321.2 2649.48 358.2 2649.48 401C2649.48 443.4 2639.68 480.4 2620.08 512C2600.48 543.2 2573.28 567.6 2538.48 585.2C2503.68 602.4 2463.48 611 2417.88 611H2227.08ZM2324.28 531.2H2413.08C2441.08 531.2 2465.28 526 2485.68 515.6C2506.48 504.8 2522.48 489.6 2533.68 470C2545.28 450.4 2551.08 427.4 2551.08 401C2551.08 374.2 2545.28 351.2 2533.68 332C2522.48 312.4 2506.48 297.4 2485.68 287C2465.28 276.2 2441.08 270.8 2413.08 270.8H2324.28V531.2Z" fill="#141926"/>
<path d="M2772.5 573V445.5H2750V424.2H2772.5V398.4C2772.5 384 2776.1 373.5 2783.3 366.9C2790.5 360.3 2801 357 2814.8 357H2829.8V378.6H2818.7C2811.1 378.6 2805.7 380.2 2802.5 383.4C2799.3 386.4 2797.7 391.6 2797.7 399V424.2H2834.3V445.5H2797.7V573H2772.5Z" fill="#141926"/>
<path d="M2884.9 653.8L2921.8 573.4H2913.1L2854 439H2881.3L2930.5 554.8L2982.7 439H3008.8L2911.3 653.8H2884.9Z" fill="#141926"/>
<path d="M383.708 0C173.619 3.45253 3.90424 172.906 0.0244849 382.897H383.708V0Z" fill="#EF355D"/>
<path d="M0 396.13C3.11111 606.801 173.128 777.039 383.708 780.5V396.13H0Z" fill="#EF355D"/>
<path d="M396.941 780.497C607.452 776.959 777.39 606.751 780.5 396.13H396.941V780.497Z" fill="#EF355D"/>
<path d="M780.475 382.897C776.597 172.956 606.961 3.53308 396.941 0.00248981V382.897H780.475Z" fill="#EF355D"/>
<path d="M205.476 300.279C204.801 301.261 203.867 302.083 202.716 302.629L193.364 307.061C189.884 308.711 185.732 307.211 184.091 303.712C182.45 300.213 183.942 296.039 187.422 294.39L195.31 290.651L294.615 169.178L272.483 150.889L246.712 182.413C244.269 185.401 239.879 185.833 236.906 183.377C233.933 180.92 233.504 176.506 235.947 173.518L266.11 136.621C266.617 136.001 267.208 135.491 267.853 135.094C270.32 133.548 273.592 133.671 275.962 135.63L308.83 162.79C311.17 164.723 311.934 167.869 310.962 170.578C310.699 171.332 310.302 172.053 309.768 172.706L205.513 300.234C205.5 300.249 205.488 300.264 205.476 300.279Z" fill="white"/>
<path d="M220.514 203.428C217.541 200.972 213.151 201.403 210.707 204.392L161.858 264.146C161.395 264.712 161.035 265.33 160.776 265.976C159.351 266.941 158.277 268.434 157.871 270.252L147.608 316.24C146.766 320.014 149.126 323.761 152.881 324.608C156.636 325.455 160.362 323.081 161.205 319.307L171.242 274.33C171.747 273.973 172.213 273.543 172.624 273.041L221.473 213.287C223.916 210.298 223.487 205.884 220.514 203.428Z" fill="white"/>
<path d="M181.102 308.499C181.102 312.368 177.982 315.504 174.134 315.504C170.287 315.504 167.167 312.368 167.167 308.499C167.167 304.631 170.287 301.495 174.134 301.495C177.982 301.495 181.102 304.631 181.102 308.499Z" fill="white"/>
<path d="M228.952 200.033C232.799 200.033 235.919 196.897 235.919 193.028C235.919 189.16 232.799 186.024 228.952 186.024C225.104 186.024 221.984 189.16 221.984 193.028C221.984 196.897 225.104 200.033 228.952 200.033Z" fill="white"/>
<path d="M552.357 278.258C576.484 278.258 596.043 258.765 596.043 234.718C596.043 210.672 576.484 191.178 552.357 191.178C537.895 191.178 525.074 198.183 517.123 208.973C516.775 209.363 516.47 209.791 516.216 210.252L516.197 210.279H516.201C515.655 211.276 515.345 212.419 515.345 213.635C515.345 217.511 518.497 220.652 522.386 220.652C524.415 220.652 526.244 219.797 527.529 218.428V218.686C532.802 210.591 541.952 205.237 552.357 205.237C568.693 205.237 581.937 218.436 581.937 234.718C581.937 251 568.693 264.199 552.357 264.199C541.952 264.199 532.802 258.845 527.529 250.751V250.948C526.244 249.579 524.415 248.723 522.386 248.723C518.497 248.723 515.345 251.865 515.345 255.741C515.345 257.134 515.752 258.432 516.455 259.524H516.45C516.479 259.567 516.509 259.609 516.539 259.652C516.597 259.738 516.657 259.823 516.719 259.906C524.635 271.012 537.647 278.258 552.357 278.258Z" fill="white"/>
<path d="M515.835 241.705C519.724 241.705 522.876 238.563 522.876 234.688C522.876 230.812 519.724 227.67 515.835 227.67C511.946 227.67 508.794 230.812 508.794 234.688C508.794 238.563 511.946 241.705 515.835 241.705Z" fill="white"/>
<path d="M667.587 227.67C667.822 228.187 668.034 228.674 668.224 229.134C668.597 229.784 668.868 230.499 669.017 231.258C669.055 231.371 669.09 231.482 669.124 231.591L669.076 231.605C669.124 231.934 669.148 232.271 669.148 232.613C669.148 236.489 665.996 239.631 662.107 239.631C658.793 239.631 656.013 237.348 655.264 234.274C655.185 234.036 655.118 233.807 655.066 233.589C645.857 211.475 629.738 196.142 622.83 191.239C597.972 172.17 572.287 166.769 554.286 166.769C540.724 166.769 520.5 166.952 494.589 182.208C462.2 201.278 450.903 230.691 450.23 232.735C449.691 234.37 450.005 236.203 450.23 236.915C453.095 244.555 461.097 255.944 464.74 260.684C471.282 269.023 490.609 287.888 515.59 296.626C546.816 307.549 570.235 303.674 593.808 295.101C612.666 288.242 627.524 275.116 632.596 269.41C632.892 269.041 633.25 268.639 633.658 268.228C634.914 266.434 637 265.26 639.361 265.26C643.199 265.26 646.311 268.361 646.311 272.186C646.311 274.369 645.298 276.316 643.715 277.585C639.843 281.426 624.138 294.485 617.35 298.609C590.624 315.269 556.857 318.846 531.999 315.269C503.804 311.211 474.057 291.897 464.74 281.34C442.699 259.768 435.902 238.563 435.382 236.915C434.938 235.508 435.086 233.671 435.382 232.857C438.247 221.751 450.301 204.288 456.199 197.22C469.792 179.096 498.691 162.375 517.855 157.372C551.561 147.303 588.359 154.229 613.156 168.081C637.953 181.933 656.074 202.376 667.587 227.67Z" fill="white"/>
<path d="M652.433 262.88C656.322 262.88 659.475 259.738 659.475 255.863C659.475 251.987 656.322 248.845 652.433 248.845C648.545 248.845 645.392 251.987 645.392 255.863C645.392 259.738 648.545 262.88 652.433 262.88Z" fill="white"/>
<path d="M615.065 499.405C617.985 502.304 622.718 502.304 625.638 499.405C628.558 496.505 628.558 491.804 625.638 488.904C622.718 486.005 617.985 486.005 615.065 488.904C612.146 491.804 612.146 496.505 615.065 499.405Z" fill="white"/>
<path d="M600.605 503.265C603.525 500.365 608.259 500.365 611.178 503.265C614.098 506.165 614.098 510.866 611.178 513.765L563.212 561.403L582.414 580.473C585.334 583.373 585.334 588.074 582.414 590.974C579.494 593.873 574.761 593.873 571.841 590.974L552.639 571.903L490.136 633.979C487.216 636.879 482.482 636.879 479.563 633.979C476.643 631.079 476.643 626.378 479.563 623.479L542.066 561.403L479.563 499.327C476.643 496.428 476.643 491.727 479.563 488.827C482.482 485.927 487.216 485.927 490.136 488.827L552.639 550.903L600.605 503.265Z" fill="white"/>
<path d="M600.761 609.195C597.841 612.095 597.841 616.796 600.761 619.695L615.143 633.979C618.063 636.879 622.796 636.879 625.716 633.979C628.635 631.079 628.635 626.378 625.716 623.479L611.334 609.195C608.414 606.295 603.68 606.295 600.761 609.195Z" fill="white"/>
<path d="M596.874 605.335C593.954 608.234 589.221 608.234 586.301 605.335C583.381 602.435 583.381 597.734 586.301 594.834C589.221 591.935 593.954 591.935 596.874 594.834C599.793 597.734 599.793 602.435 596.874 605.335Z" fill="white"/>
<path d="M246.955 499.2C251.039 499.2 254.35 495.877 254.35 491.778C254.35 487.678 251.039 484.355 246.955 484.355C242.871 484.355 239.56 487.678 239.56 491.778C239.56 495.877 242.871 499.2 246.955 499.2Z" fill="white"/>
<path d="M269.467 496.689C271.56 496.689 273.454 497.55 274.815 498.937C292.737 513.792 304.159 536.265 304.159 561.415C304.159 599.167 278.422 630.887 243.597 639.863L243.599 639.873L243.626 639.868L259.45 650.485C262.827 652.751 263.73 657.333 261.465 660.718C259.201 664.104 254.628 665.011 251.25 662.745L221.118 642.527C220.964 642.439 220.811 642.345 220.662 642.244C219.154 641.233 218.14 639.76 217.68 638.139C217.618 637.926 217.565 637.71 217.521 637.488C217.07 635.196 217.732 632.941 219.131 631.286L239.157 601.345C241.421 597.96 245.995 597.052 249.372 599.318C252.749 601.584 253.652 606.166 251.387 609.551L240.91 625.216C268.841 617.541 289.368 591.884 289.368 561.415C289.368 541.171 280.307 523.052 266.033 510.919C263.616 509.668 261.963 507.138 261.963 504.221C261.963 500.061 265.322 496.689 269.467 496.689Z" fill="white"/>
<path d="M198.458 623.607C194.373 623.607 191.063 626.93 191.063 631.029C191.063 635.128 194.373 638.451 198.458 638.451C202.542 638.451 205.853 635.128 205.853 631.029C205.853 626.93 202.542 623.607 198.458 623.607Z" fill="white"/>
<path d="M175.946 626.117C173.852 626.117 171.959 625.257 170.598 623.869C152.676 609.014 141.254 586.542 141.254 561.392C141.254 523.639 166.991 491.92 201.816 482.944L201.814 482.933L201.787 482.938L185.963 472.321C182.586 470.055 181.683 465.474 183.947 462.088C186.212 458.703 190.785 457.796 194.163 460.062L224.295 480.279C224.449 480.367 224.601 480.462 224.751 480.562C226.259 481.574 227.273 483.046 227.733 484.668C227.795 484.88 227.848 485.097 227.891 485.318C228.343 487.611 227.681 489.865 226.281 491.521L206.256 521.461C203.992 524.847 199.418 525.754 196.041 523.488C192.663 521.222 191.761 516.641 194.025 513.255L204.503 497.59C176.571 505.266 156.045 530.923 156.045 561.392C156.045 581.635 165.106 599.755 179.379 611.888C181.797 613.138 183.45 615.668 183.45 618.586C183.45 622.745 180.09 626.117 175.946 626.117Z" fill="white"/>
<defs>
<linearGradient id="paint0_linear_15_156" x1="2268.98" y1="686.522" x2="2343.45" y2="773.767" gradientUnits="userSpaceOnUse">
<stop stop-color="#EE2D60"/>
<stop offset="1" stop-color="#EF4953"/>
</linearGradient>
</defs>
</svg>
